<svg version="1.1" viewBox="0.0 0.0 960.0 720.0" fill="none" stroke="none" stroke-linecap="square" stroke-miterlimit="10" xmlns:xlink="http://www.w3.org/1999/xlink" xmlns="http://www.w3.org/2000/svg"><clipPath id="p.0"><path d="m0 0l960.0 0l0 720.0l-960.0 0l0 -720.0z" clip-rule="nonzero"/></clipPath><g clip-path="url(#p.0)"><path fill="#000000" fill-opacity="0.0" d="m0 0l960.0 0l0 720.0l-960.0 0z" fill-rule="evenodd"/><path fill="#000000" fill-opacity="0.0" d="m810.18646 461.76978l54.44922 -122.08884l138.36969 24.388062l-54.44922 122.08887z" fill-rule="evenodd"/><path stroke="#2f6d8e" stroke-width="4.0" stroke-linejoin="round" stroke-linecap="butt" d="m810.18646 461.76978l54.44922 -122.08884l138.36969 24.388062l-54.44922 122.08887z" fill-rule="evenodd"/><path fill="#000000" fill-opacity="0.0" d="m600.08923 423.5748l0 0c0 -23.787384 19.283508 -43.07086 43.07086 -43.07086l0 0c11.423096 0 22.378357 4.5378113 30.455688 12.615173c8.077393 8.077332 12.615173 19.032593 12.615173 30.455688l0 0c0 23.787384 -19.283447 43.07086 -43.07086 43.07086l0 0c-23.787354 0 -43.07086 -19.283478 -43.07086 -43.07086z" fill-rule="evenodd"/><path stroke="#2f6d8e" stroke-width="4.0" stroke-linejoin="round" stroke-linecap="butt" d="m600.08923 423.5748l0 0c0 -23.787384 19.283508 -43.07086 43.07086 -43.07086l0 0c11.423096 0 22.378357 4.5378113 30.455688 12.615173c8.077393 8.077332 12.615173 19.032593 12.615173 30.455688l0 0c0 23.787384 -19.283447 43.07086 -43.07086 43.07086l0 0c-23.787354 0 -43.07086 -19.283478 -43.07086 -43.07086z" fill-rule="evenodd"/><path fill="#000000" fill-opacity="0.0" d="m702.4147 355.77167l0 0c0 -5.644623 4.5758667 -10.2204895 10.22052 -10.2204895l0 0c2.7106323 0 5.3102417 1.0768127 7.2269287 2.9934998c1.916748 1.9167175 2.9935303 4.516327 2.9935303 7.2269897l0 0c0 5.6445923 -4.5758667 10.220459 -10.220459 10.220459l0 0c-5.6446533 0 -10.22052 -4.5758667 -10.22052 -10.220459z" fill-rule="evenodd"/><path stroke="#2f6d8e" stroke-width="4.0" stroke-linejoin="round" stroke-linecap="butt" d="m702.4147 355.77167l0 0c0 -5.644623 4.5758667 -10.2204895 10.22052 -10.2204895l0 0c2.7106323 0 5.3102417 1.0768127 7.2269287 2.9934998c1.916748 1.9167175 2.9935303 4.516327 2.9935303 7.2269897l0 0c0 5.6445923 -4.5758667 10.220459 -10.220459 10.220459l0 0c-5.6446533 0 -10.22052 -4.5758667 -10.22052 -10.220459z" fill-rule="evenodd"/><path fill="#000000" fill-opacity="0.0" d="m530.052 338.1197l14.054565 0l0 -14.054565l13.230469 0l0 14.054565l14.054504 0l0 13.230438l-14.054504 0l0 14.054565l-13.230469 0l0 -14.054565l-14.054565 0z" fill-rule="evenodd"/><path stroke="#2f6d8e" stroke-width="4.0" stroke-linejoin="round" stroke-linecap="butt" d="m530.052 338.1197l14.054565 0l0 -14.054565l13.230469 0l0 14.054565l14.054504 0l0 13.230438l-14.054504 0l0 14.054565l-13.230469 0l0 -14.054565l-14.054565 0z" fill-rule="evenodd"/><path fill="#000000" fill-opacity="0.0" d="m701.8819 296.58267l32.519653 -56.25197l32.519714 56.25197z" fill-rule="evenodd"/><path stroke="#2f6d8e" stroke-width="4.0" stroke-linejoin="round" stroke-linecap="butt" d="m701.8819 296.58267l32.519653 -56.25197l32.519714 56.25197z" fill-rule="evenodd"/><path fill="#000000" fill-opacity="0.0" d="m495.03937 308.48032l-13.123047 4.66687l0 -9.33374zm-9.527069 -22.995636l-5.977722 12.580597l-6.5998535 -6.5998535zm-22.992615 -9.524048l4.66687 13.123047l-9.33374 0zm-22.995636 9.524048l12.580597 5.9807434l-6.5998535 6.5998535zm-9.524048 22.995636l13.123047 -4.66687l0 9.33374zm9.524048 22.992615l5.9807434 -12.577576l6.5998535 6.5998535zm22.995636 9.527069l-4.66687 -13.123047l9.33374 0zm22.992615 -9.527069l-12.577576 -5.977722l6.5998535 -6.5998535zm-39.25244 -22.992615l0 0c0 -8.980072 7.2797546 -16.259857 16.259827 -16.259857c8.980072 0 16.259857 7.279785 16.259857 16.259857c0 8.980072 -7.279785 16.259827 -16.259857 16.259827c-8.980072 0 -16.259827 -7.2797546 -16.259827 -16.259827z" fill-rule="evenodd"/><path stroke="#2f6d8e" stroke-width="3.0" stroke-linejoin="round" stroke-linecap="butt" d="m495.03937 308.48032l-13.123047 4.66687l0 -9.33374zm-9.527069 -22.995636l-5.977722 12.580597l-6.5998535 -6.5998535zm-22.992615 -9.524048l4.66687 13.123047l-9.33374 0zm-22.995636 9.524048l12.580597 5.9807434l-6.5998535 6.5998535zm-9.524048 22.995636l13.123047 -4.66687l0 9.33374zm9.524048 22.992615l5.9807434 -12.577576l6.5998535 6.5998535zm22.995636 9.527069l-4.66687 -13.123047l9.33374 0zm22.992615 -9.527069l-12.577576 -5.977722l6.5998535 -6.5998535zm-39.25244 -22.992615l0 0c0 -8.980072 7.2797546 -16.259857 16.259827 -16.259857c8.980072 0 16.259857 7.279785 16.259857 16.259857c0 8.980072 -7.279785 16.259827 -16.259857 16.259827c-8.980072 0 -16.259827 -7.2797546 -16.259827 -16.259827z" fill-rule="evenodd"/><path fill="#000000" fill-opacity="0.0" d="m311.2616 317.0365l16.86615 -62.740158l45.968506 45.92125z" fill-rule="evenodd"/><path stroke="#2f6d8e" stroke-width="4.0" stroke-linejoin="round" stroke-linecap="butt" d="m311.2616 317.0365l16.86615 -62.740158l45.968506 45.92125z" fill-rule="evenodd"/><path fill="#000000" fill-opacity="0.0" d="m231.6332 300.87198l13.51944 3.8323364l3.8323364 -13.51944l12.72673 3.6076355l-3.8323364 13.51944l13.51944 3.8323364l-3.6076355 12.726746l-13.51944 -3.8323364l-3.8323517 13.51944l-12.72673 -3.6076355l3.8323517 -13.51944l-13.51944 -3.832367z" fill-rule="evenodd"/><path stroke="#2f6d8e" stroke-width="4.0" stroke-linejoin="round" stroke-linecap="butt" d="m231.6332 300.87198l13.51944 3.8323364l3.8323364 -13.51944l12.72673 3.6076355l-3.8323364 13.51944l13.51944 3.8323364l-3.6076355 12.726746l-13.51944 -3.8323364l-3.8323517 13.51944l-12.72673 -3.6076355l3.8323517 -13.51944l-13.51944 -3.832367z" fill-rule="evenodd"/><path fill="#000000" fill-opacity="0.0" d="m131.86089 458.66403l0 0c0 -37.86847 30.698471 -68.566925 68.56694 -68.566925l0 0c18.185074 0 35.625336 7.223999 48.48413 20.082794c12.858795 12.858795 20.082794 30.299072 20.082794 48.48413l0 0c0 37.86847 -30.698456 68.566925 -68.566925 68.566925l0 0c-37.86847 0 -68.56694 -30.698456 -68.56694 -68.566925z" fill-rule="evenodd"/><path stroke="#2f6d8e" stroke-width="4.0" stroke-linejoin="round" stroke-linecap="butt" d="m131.86089 458.66403l0 0c0 -37.86847 30.698471 -68.566925 68.56694 -68.566925l0 0c18.185074 0 35.625336 7.223999 48.48413 20.082794c12.858795 12.858795 20.082794 30.299072 20.082794 48.48413l0 0c0 37.86847 -30.698456 68.566925 -68.566925 68.566925l0 0c-37.86847 0 -68.56694 -30.698456 -68.56694 -68.566925z" fill-rule="evenodd"/><path fill="#000000" fill-opacity="0.0" d="m-4.140546 249.57112l87.14961 -23.370071l23.370079 87.1496l-87.14961 23.370087z" fill-rule="evenodd"/><path stroke="#2f6d8e" stroke-width="4.0" stroke-linejoin="round" stroke-linecap="butt" d="m-4.140546 249.57112l87.14961 -23.370071l23.370079 87.1496l-87.14961 23.370087z" fill-rule="evenodd"/><path fill="#000000" fill-opacity="0.0" d="m-28.236221 125.0l0 0c0 -33.137085 20.200066 -60.0 45.11811 -60.0l0 0c11.966066 0 23.442036 6.321411 31.90332 17.573593c8.461288 11.252182 13.21479 26.51342 13.21479 42.426407l0 0c0 33.137085 -20.200066 60.0 -45.11811 60.0l0 0c-24.918045 0 -45.11811 -26.862915 -45.11811 -60.0z" fill-rule="evenodd"/><path stroke="#2f6d8e" stroke-width="4.0" stroke-linejoin="round" stroke-linecap="butt" d="m-28.236221 125.0l0 0c0 -33.137085 20.200066 -60.0 45.11811 -60.0l0 0c11.966066 0 23.442036 6.321411 31.90332 17.573593c8.461288 11.252182 13.21479 26.51342 13.21479 42.426407l0 0c0 33.137085 -20.200066 60.0 -45.11811 60.0l0 0c-24.918045 0 -45.11811 -26.862915 -45.11811 -60.0z" fill-rule="evenodd"/><path fill="#000000" fill-opacity="0.0" d="m76.55032 87.0365l16.866142 -62.740158l45.9685 45.921265z" fill-rule="evenodd"/><path stroke="#2f6d8e" stroke-width="4.0" stroke-linejoin="round" stroke-linecap="butt" d="m76.55032 87.0365l16.866142 -62.740158l45.9685 45.921265z" fill-rule="evenodd"/><path fill="#000000" fill-opacity="0.0" d="m18.95838 26.506699l7.4050045 -1.9830627l-1.9830627 -7.4050026l6.97081 -1.8667841l1.9830627 7.4050035l7.4050026 -1.9830627l1.8667831 6.97081l-7.4050026 1.9830608l1.9830627 7.4050045l-6.97081 1.8667831l-1.9830627 -7.4050026l-7.4050026 1.9830627z" fill-rule="evenodd"/><path stroke="#2f6d8e" stroke-width="3.0" stroke-linejoin="round" stroke-linecap="butt" d="m18.95838 26.506699l7.4050045 -1.9830627l-1.9830627 -7.4050026l6.97081 -1.8667841l1.9830627 7.4050035l7.4050026 -1.9830627l1.8667831 6.97081l-7.4050026 1.9830608l1.9830627 7.4050045l-6.97081 1.8667831l-1.9830627 -7.4050026l-7.4050026 1.9830627z" fill-rule="evenodd"/><path fill="#000000" fill-opacity="0.0" d="m138.86186 39.8944l24.062988 -28.850391l3.842514 3.2125988l-24.062988 28.850395z" fill-rule="evenodd"/><path stroke="#2f6d8e" stroke-width="4.0" stroke-linejoin="round" stroke-linecap="butt" d="m138.86186 39.8944l24.062988 -28.850391l3.842514 3.2125988l-24.062988 28.850395z" fill-rule="evenodd"/><path fill="#000000" fill-opacity="0.0" d="m187.20735 83.01575l0 0c0 -5.6446075 -4.5758667 -10.220474 -10.220474 -10.220474l0 0c-2.7106323 0 -5.310257 1.0767975 -7.226959 2.9935074c-1.9167175 1.9167099 -2.993515 4.516327 -2.993515 7.226967l0 0c0 5.644615 4.5758667 10.220474 10.220474 10.220474l0 0c5.6446075 0 10.220474 -4.575859 10.220474 -10.220474z" fill-rule="evenodd"/><path stroke="#2f6d8e" stroke-width="4.0" stroke-linejoin="round" stroke-linecap="butt" d="m187.20735 83.01575l0 0c0 -5.6446075 -4.5758667 -10.220474 -10.220474 -10.220474l0 0c-2.7106323 0 -5.310257 1.0767975 -7.226959 2.9935074c-1.9167175 1.9167099 -2.993515 4.516327 -2.993515 7.226967l0 0c0 5.644615 4.5758667 10.220474 10.220474 10.220474l0 0c5.6446075 0 10.220474 -4.575859 10.220474 -10.220474z" fill-rule="evenodd"/><path fill="#000000" fill-opacity="0.0" d="m263.2152 -2.929134l0 0c0 -19.177761 -15.546631 -34.724407 -34.724396 -34.724407l0 0c-9.209488 0 -18.041779 3.658451 -24.553864 10.170542c-6.512085 6.5120907 -10.1705475 15.34438 -10.1705475 24.553865l0 0c0 19.177763 15.546646 34.724407 34.72441 34.724407l0 0c19.177765 0 34.724396 -15.546646 34.724396 -34.724407z" fill-rule="evenodd"/><path stroke="#2f6d8e" stroke-width="4.0" stroke-linejoin="round" stroke-linecap="butt" d="m263.2152 -2.929134l0 0c0 -19.177761 -15.546631 -34.724407 -34.724396 -34.724407l0 0c-9.209488 0 -18.041779 3.658451 -24.553864 10.170542c-6.512085 6.5120907 -10.1705475 15.34438 -10.1705475 24.553865l0 0c0 19.177763 15.546646 34.724407 34.72441 34.724407l0 0c19.177765 0 34.724396 -15.546646 34.724396 -34.724407z" fill-rule="evenodd"/><path fill="#000000" fill-opacity="0.0" d="m394.90143 40.740707l11.937714 0l0 -11.937716l11.237732 0l0 11.937716l11.937714 0l0 11.237743l-11.937714 0l0 11.937717l-11.237732 0l0 -11.937717l-11.937714 0z" fill-rule="evenodd"/><path stroke="#2f6d8e" stroke-width="4.0" stroke-linejoin="round" stroke-linecap="butt" d="m394.90143 40.740707l11.937714 0l0 -11.937716l11.237732 0l0 11.937716l11.937714 0l0 11.237743l-11.937714 0l0 11.937717l-11.237732 0l0 -11.937717l-11.937714 0z" fill-rule="evenodd"/><path fill="#000000" fill-opacity="0.0" d="m252.4365 69.75589l87.1496 23.338577l-23.338562 87.14961l-87.14963 -23.338593z" fill-rule="evenodd"/><path stroke="#2f6d8e" stroke-width="4.0" stroke-linejoin="round" stroke-linecap="butt" d="m252.4365 69.75589l87.1496 23.338577l-23.338562 87.14961l-87.14963 -23.338593z" fill-rule="evenodd"/><path fill="#000000" fill-opacity="0.0" d="m380.271 126.76919l7.165344 -26.629921l19.51181 19.480316z" fill-rule="evenodd"/><path stroke="#2f6d8e" stroke-width="4.0" stroke-linejoin="round" stroke-linecap="butt" d="m380.271 126.76919l7.165344 -26.629921l19.51181 19.480316z" fill-rule="evenodd"/><path fill="#000000" fill-opacity="0.0" d="m501.01575 51.46194l0 0c0 -4.3313026 -3.5112 -7.842518 -7.8425293 -7.842518l0 0c-2.079956 0 -4.0747375 0.8262634 -5.5455017 2.29702c-1.4707336 1.4707565 -2.296997 3.4655342 -2.296997 5.545498l0 0c0 4.3313065 3.5112 7.8425217 7.842499 7.8425217l0 0c4.3313293 0 7.8425293 -3.5112152 7.8425293 -7.8425217z" fill-rule="evenodd"/><path stroke="#2f6d8e" stroke-width="4.0" stroke-linejoin="round" stroke-linecap="butt" d="m501.01575 51.46194l0 0c0 -4.3313026 -3.5112 -7.842518 -7.8425293 -7.842518l0 0c-2.079956 0 -4.0747375 0.8262634 -5.5455017 2.29702c-1.4707336 1.4707565 -2.296997 3.4655342 -2.296997 5.545498l0 0c0 4.3313065 3.5112 7.8425217 7.842499 7.8425217l0 0c4.3313293 0 7.8425293 -3.5112152 7.8425293 -7.8425217z" fill-rule="evenodd"/><path fill="#000000" fill-opacity="0.0" d="m590.7144 -80.13622l45.102356 78.14174l-78.14172 45.102364l-45.102356 -78.14173z" fill-rule="evenodd"/><path stroke="#2f6d8e" stroke-width="4.0" stroke-linejoin="round" stroke-linecap="butt" d="m590.7144 -80.13622l45.102356 78.14174l-78.14172 45.102364l-45.102356 -78.14173z" fill-rule="evenodd"/><path fill="#000000" fill-opacity="0.0" d="m641.20123 69.37634l10.341858 5.9737167l5.964905 -10.340248l9.730774 5.62072l-5.964905 10.340248l10.341797 5.9737244l-5.6151123 9.73394l-10.341858 -5.9737167l-5.964966 10.340248l-9.730713 -5.62072l5.964905 -10.340248l-10.341858 -5.9737244z" fill-rule="evenodd"/><path stroke="#2f6d8e" stroke-width="4.0" stroke-linejoin="round" stroke-linecap="butt" d="m641.20123 69.37634l10.341858 5.9737167l5.964905 -10.340248l9.730774 5.62072l-5.964905 10.340248l10.341797 5.9737244l-5.6151123 9.73394l-10.341858 -5.9737167l-5.964966 10.340248l-9.730713 -5.62072l5.964905 -10.340248l-10.341858 -5.9737244z" fill-rule="evenodd"/><path fill="#000000" fill-opacity="0.0" d="m783.01575 46.35958l0 0c0 -13.193954 -10.695801 -23.889765 -23.88977 -23.889765l0 0c-6.3359375 0 -12.412415 2.5169506 -16.892578 6.9971504c-4.4802246 4.4802 -6.9971924 10.556654 -6.9971924 16.892614l0 0c0 13.193951 10.695801 23.889763 23.88977 23.889763l0 0c13.19397 0 23.88977 -10.695812 23.88977 -23.889763z" fill-rule="evenodd"/><path stroke="#2f6d8e" stroke-width="4.0" stroke-linejoin="round" stroke-linecap="butt" d="m783.01575 46.35958l0 0c0 -13.193954 -10.695801 -23.889765 -23.88977 -23.889765l0 0c-6.3359375 0 -12.412415 2.5169506 -16.892578 6.9971504c-4.4802246 4.4802 -6.9971924 10.556654 -6.9971924 16.892614l0 0c0 13.193951 10.695801 23.889763 23.88977 23.889763l0 0c13.19397 0 23.88977 -10.695812 23.88977 -23.889763z" fill-rule="evenodd"/><path fill="#000000" fill-opacity="0.0" d="m783.0146 104.86602l79.6535 -74.11024l43.68506 99.62204z" fill-rule="evenodd"/><path stroke="#2f6d8e" stroke-width="4.0" stroke-linejoin="round" stroke-linecap="butt" d="m783.0146 104.86602l79.6535 -74.11024l43.68506 99.62204z" fill-rule="evenodd"/><path fill="#000000" fill-opacity="0.0" d="m929.6426 137.18266l14.054504 0l0 -14.05455l13.230469 0l0 14.05455l14.054565 0l0 13.230469l-14.054565 0l0 14.05455l-13.230469 0l0 -14.05455l-14.054504 0z" fill-rule="evenodd"/><path stroke="#2f6d8e" stroke-width="4.0" stroke-linejoin="round" stroke-linecap="butt" d="m929.6426 137.18266l14.054504 0l0 -14.05455l13.230469 0l0 14.05455l14.054565 0l0 13.230469l-14.054565 0l0 14.05455l-13.230469 0l0 -14.05455l-14.054504 0z" fill-rule="evenodd"/><path fill="#000000" fill-opacity="0.0" d="m707.1706 111.666664l0 0c0 -4.331299 3.5112305 -7.842514 7.8425293 -7.842514l0 0c2.079956 0 4.074768 0.8262634 5.545471 2.29702c1.4707642 1.4707565 2.297058 3.4655304 2.297058 5.545494l0 0c0 4.3313065 -3.5112305 7.8425217 -7.8425293 7.8425217l0 0c-4.331299 0 -7.8425293 -3.5112152 -7.8425293 -7.8425217z" fill-rule="evenodd"/><path stroke="#2f6d8e" stroke-width="4.0" stroke-linejoin="round" stroke-linecap="butt" d="m707.1706 111.666664l0 0c0 -4.331299 3.5112305 -7.842514 7.8425293 -7.842514l0 0c2.079956 0 4.074768 0.8262634 5.545471 2.29702c1.4707642 1.4707565 2.297058 3.4655304 2.297058 5.545494l0 0c0 4.3313065 -3.5112305 7.8425217 -7.8425293 7.8425217l0 0c-4.331299 0 -7.8425293 -3.5112152 -7.8425293 -7.8425217z" fill-rule="evenodd"/></g></svg>